<?xml version="1.0" encoding="iso-8859-1"?>
<!-- Uploaded to: SVG Repo, www.svgrepo.com, Generator: SVG Repo Mixer Tools -->
<!DOCTYPE svg PUBLIC "-//W3C//DTD SVG 1.1//EN" "http://www.w3.org/Graphics/SVG/1.1/DTD/svg11.dtd">
<svg fill="#000000" version="1.1" id="Capa_1" xmlns="http://www.w3.org/2000/svg" xmlns:xlink="http://www.w3.org/1999/xlink" 
	 width="800px" height="800px" viewBox="0 0 303.19 303.191"
	 xml:space="preserve">
<g>
	<g>
		<path d="M112.626,296.638c2.237,5.411,8.44,7.985,13.854,5.743l149.433-61.837c5.416-2.237,7.984-8.441,5.742-13.857
			L190.567,6.552c-2.237-5.414-8.44-7.984-13.856-5.742L27.278,62.647c-5.414,2.237-7.984,8.44-5.743,13.854L112.626,296.638z
			 M84.662,104.388l58.453,23.411l23.41-58.456l28.304,11.337l-23.416,58.454l58.456,23.413l-11.335,28.303l-58.455-23.41
			l-23.411,58.456l-28.306-11.34l23.41-58.451l-58.448-23.413L84.662,104.388z"/>
	</g>
</g>
</svg>